<svg viewBox="0 0 512 512" xmlns="http://www.w3.org/2000/svg" xmlns:xlink="http://www.w3.org/1999/xlink" version="1.1">
    <path d="M32 16 C23.164 16 16 23.164 16 32 L16 480 C16 488.836 23.164 496 32 496 L480 496 C488.836 496 496 488.836 496 480 L496 32 C496 23.164 488.836 16 480 16 Z" fill="#000" fill-opacity="0.25"/>
    <path d="M224.18 411.111 C220.085 411.111 215.992 409.55 212.867 406.426 L167.611 361.17 44.574 238.133 C38.326 231.884 38.326 221.754 44.574 215.506 L89.83 170.252 C96.079 164.003 106.209 164.003 112.457 170.252 L224.18 281.974 399.543 106.611 C405.791 100.363 415.922 100.363 422.17 106.611 L467.424 151.867 C473.672 158.115 473.672 168.246 467.424 174.494 L280.748 361.17 235.494 406.426 C232.37 409.55 228.275 411.111 224.18 411.111 Z" fill="#fff"/>
</svg>
