<svg viewBox="0 0 512 512" xmlns="http://www.w3.org/2000/svg" xmlns:xlink="http://www.w3.org/1999/xlink" version="1.1">
<path d="M224 496 C215.164 496 208 488.836 208 480 L208 429.525 C193.614 425.555 179.95 419.845 167.25 412.633 L131.549 448.334 C125.301 454.582 115.17 454.582 108.922 448.334 L63.666 403.078 C57.418 396.83 57.418 386.699 63.666 380.451 L99.367 344.75 C92.155 332.05 86.445 318.386 82.475 304 L32 304 C23.164 304 16 296.836 16 288 L16 224 C16 215.164 23.164 208 32 208 L82.475 208 C86.445 193.614 92.155 179.95 99.367 167.25 L63.666 131.549 C57.418 125.301 57.418 115.17 63.666 108.922 L108.922 63.666 C115.17 57.418 125.301 57.418 131.549 63.666 L167.25 99.367 C179.95 92.155 193.614 86.445 208 82.475 L208 32 C208 23.164 215.164 16 224 16 L288 16 C296.836 16 304 23.164 304 32 L304 82.475 C318.386 86.445 332.05 92.155 344.75 99.367 L380.451 63.666 C386.699 57.418 396.83 57.418 403.078 63.666 L448.334 108.922 C454.582 115.17 454.582 125.301 448.334 131.549 L412.633 167.25 C419.845 179.95 425.555 193.614 429.525 208 L480 208 C488.836 208 496 215.164 496 224 L496 288 C496 296.836 488.836 304 480 304 L429.525 304 C425.555 318.386 419.845 332.05 412.633 344.75 L448.334 380.451 C454.582 386.699 454.582 396.83 448.334 403.078 L403.078 448.334 C396.83 454.582 386.699 454.582 380.451 448.334 L344.75 412.633 C332.05 419.845 318.386 425.555 304 429.525 L304 480 C304 488.836 296.836 496 288 496 L224 496 Z M256 352 C309.019 352 352 309.019 352 256 352 202.981 309.019 160 256 160 202.981 160 160 202.981 160 256 160 309.019 202.981 352 256 352 Z" fill="#666"/>
</svg>
