<svg viewBox="0 0 512 512" xmlns="http://www.w3.org/2000/svg" xmlns:xlink="http://www.w3.org/1999/xlink">
<path fill="#fff" d="M 453.990234 481.302734 C 449.895477 481.302734 445.799957 479.741333 442.675781 476.617188 L 35.382813 69.324219 C 29.134489 63.075867 29.134478 52.945618 35.382813 46.697266 L 46.697266 35.382813 C 52.945591 29.13446 63.075886 29.13446 69.324219 35.382813 L 476.617188 442.675781 C 482.86554 448.924133 482.86554 459.054413 476.617188 465.302734 L 465.302734 476.617188 C 462.178558 479.741333 458.084991 481.302734 453.990234 481.302734 Z M 292.244141 473 C 281.502411 473.078064 265.854156 457.375641 256.130859 447.652344 C 224.246887 415.768372 200.3423 391.863342 160.478516 352 L 32 352 C 23.163567 352 16 344.836426 16 336 L 16 176 C 16 167.163513 23.163567 160 32 160 L 92.117188 160 L 304 371.882813 C 304 402.073792 304 437.312622 304 447.666016 C 304 466.415894 299.129883 472.949951 292.244141 473 Z M 385.273438 456.638672 C 385.17157 456.640045 385.069 456.638794 384.966797 456.636719 C 376.011963 456.455933 365.815491 443.195313 362.90625 430.789063 L 388.199219 456.082031 C 387.248444 456.444824 386.269592 456.625275 385.273438 456.638672 Z M 457.099609 389.216797 L 422.113281 354.230469 C 438.789063 325.462738 448 291.534485 448 256 C 448 190.95813 417.128448 131.269958 366.175781 98.740234 C 351.013214 89.059998 374.934326 47.344818 389.695313 56.658203 C 455.026245 97.87851 496 172.94577 496 256 C 496 304.81427 481.99762 351.113098 457.099609 389.216797 Z M 386.501953 318.619141 L 349.044922 281.162109 C 351.005981 273.059052 352 264.575226 352 256 C 352 226.991089 340.592529 199.143829 318.794922 183.384766 C 303.677521 172.455292 327.298035 130.915863 343.378906 141.533203 C 379.533936 165.404205 400 209.329681 400 256 C 400 278.178528 395.282593 299.606262 386.501953 318.619141 Z M 304 236.117188 L 193.941406 126.058594 C 214.474396 105.525635 235.401138 84.598846 256.130859 63.869141 C 272.086945 47.913055 304 15.855835 304 63.855469 C 304 101.236755 304 131.377228 304 176 L 304 236.117188 Z"/>
</svg>
