<svg viewBox="0 0 512 512" xmlns="http://www.w3.org/2000/svg" xmlns:xlink="http://www.w3.org/1999/xlink">
<path fill="#fff" d="M 255.529297 497 C 135.195374 497 37.644531 399.449219 37.644531 279.115234 L 37.681641 279.115234 C 38.252636 269.857239 45.940056 262.525391 55.341797 262.525391 L 73.037109 262.525391 C 82.43885 262.525391 90.126266 269.857239 90.697266 279.115234 L 90.734375 279.115234 C 90.734375 370.129272 164.51535 443.912109 255.529297 443.912109 C 346.543304 443.912109 420.326172 370.129272 420.326172 279.115234 C 420.326172 188.101288 346.543304 114.318359 255.529297 114.318359 L 143.822266 114.318359 C 143.822311 118.799103 143.822128 122.861359 143.822266 127.132813 C 143.823608 167.413879 143.827942 167.402405 116.925781 147.236328 C 104.238304 137.725647 85.223488 123.45932 69.371094 111.572266 C 37.62344 87.766083 37.631889 87.759064 69.484375 63.898438 C 85.397728 51.977783 104.476463 37.655792 117.203125 28.105469 C 143.821686 8.130432 143.819534 8.141174 143.822266 48.244141 C 143.822495 51.709625 143.822159 57.266754 143.822266 61.230469 L 255.529297 61.230469 C 375.863281 61.230469 473.416016 158.781311 473.416016 279.115234 C 473.416016 399.449219 375.863281 497 255.529297 497 Z"/>
<path fill="#fff" d="M 296.638824 185.992554 C 307.733887 185.992554 317.189789 188.472107 325.006775 193.431274 C 332.823761 198.390442 339.169708 205.030579 344.04483 213.351898 C 348.919952 221.673187 352.450134 231.297211 354.635529 242.224182 C 356.820923 253.151154 357.913605 264.666321 357.913605 276.77002 C 357.913605 288.873779 356.652832 300.388916 354.131226 311.315918 C 351.609619 322.242889 347.82724 331.82486 342.784027 340.062134 C 337.740814 348.299377 331.352844 354.855469 323.619904 359.73056 C 315.886963 364.605652 306.809326 367.043213 296.386658 367.043213 C 285.96402 367.043213 276.928375 364.647705 269.27951 359.856628 C 261.630615 355.065582 255.284668 348.593567 250.24144 340.440369 C 245.198227 332.28717 241.457901 322.789246 239.02034 311.946289 C 236.582779 301.103394 235.364029 289.630249 235.364029 277.52652 C 235.364029 265.422791 236.498734 253.823578 238.768188 242.728485 C 241.037628 231.633423 244.609863 221.883331 249.48497 213.477966 C 254.360077 205.072601 260.706024 198.390442 268.52301 193.431274 C 276.339996 188.472107 285.711853 185.992554 296.638824 185.992554 Z M 296.638824 335.271057 C 302.01825 335.271057 306.599121 333.548004 310.381531 330.101807 C 314.16394 326.655609 317.189819 322.158813 319.459259 316.611267 C 321.728729 311.063721 323.367737 304.843842 324.376373 297.951447 C 325.38504 291.059052 325.889343 284.082703 325.889343 277.022217 C 325.889343 269.793579 325.38504 262.439026 324.376373 254.958221 C 323.367737 247.477448 321.686676 240.711243 319.333191 234.659393 C 316.979675 228.607513 313.953796 223.69046 310.255432 219.908051 C 306.557068 216.125641 302.01825 214.234436 296.638824 214.234436 C 291.259399 214.234436 286.720551 216.125641 283.022186 219.908051 C 279.323853 223.69046 276.297943 228.607513 273.944458 234.659393 C 271.590942 240.711243 269.867889 247.477448 268.775177 254.958221 C 267.682495 262.439026 267.136139 269.96167 267.136139 277.52652 C 267.136139 284.587036 267.640442 291.605408 268.649109 298.581848 C 269.657745 305.558289 271.338806 311.736145 273.692291 317.115601 C 276.045807 322.494995 279.071686 326.865723 282.77005 330.227905 C 286.468414 333.590027 291.091278 335.271057 296.638824 335.271057 Z M 210.400223 357.208984 C 210.400223 363.765137 205.104919 367.043213 194.51416 367.043213 C 183.923401 367.043213 178.628113 363.765137 178.628113 357.208984 L 178.628113 221.042755 L 166.272278 221.042755 C 163.078247 221.042755 160.892883 220.034119 159.716141 218.016846 C 158.539383 215.999542 157.951019 211.796936 157.951019 205.408875 C 157.951019 199.356995 158.749512 195.154388 160.346527 192.800873 C 161.943558 190.447388 164.423096 189.27063 167.785248 189.27063 L 193.001205 189.27063 C 204.600601 189.27063 210.400223 193.641357 210.400223 202.382935 Z"/>
</svg>
