<?xml version="1.0"?>
<svg viewBox="0 0 512 512" xmlns="http://www.w3.org/2000/svg" xmlns:xlink="http://www.w3.org/1999/xlink" version="1.1">
<path d="M32 496 C23.164 496 16 484.304 16 469.877 L16 432 16 352 16 320 C16 311.164 23.164 304 32 304 L48 304 C56.836 304 64 311.164 64 320 L64 352 64 432 C64 440.836 71.164 448 80 448 L160 448 192 448 C200.836 448 208 455.164 208 464 L208 480 C208 488.836 200.836 496 192 496 L160 496 80 496 32 496 Z M320 496 C311.164 496 304 488.836 304 480 L304 464 C304 455.164 311.164 448 320 448 L352 448 432 448 C440.836 448 448 440.836 448 432 L448 352 448 320 C448 311.164 455.164 304 464 304 L480 304 C488.836 304 496 311.164 496 320 L496 352 496 432 496 469.877 C496 484.304 488.836 496 480 496 L432 496 352 496 320 496 Z M32 208 C23.164 208 16 200.836 16 192 L16 160 16 80 16 42.123 C16 27.696 23.164 16 32 16 L80 16 160 16 192 16 C200.836 16 208 23.164 208 32 L208 48 C208 56.836 200.836 64 192 64 L160 64 80 64 C71.164 64 64 71.164 64 80 L64 160 64 192 C64 200.836 56.836 208 48 208 L32 208 Z M464 208 C455.164 208 448 200.836 448 192 L448 160 448 80 C448 71.164 440.836 64 432 64 L352 64 320 64 C311.164 64 304 56.836 304 48 L304 32 C304 23.164 311.164 16 320 16 L352 16 432 16 480 16 C488.836 16 496 27.696 496 42.123 L496 80 496 160 496 192 C496 200.836 488.836 208 480 208 L464 208 Z" fill="#fff"/>
</svg>