<?xml version="1.0"?>
<svg viewBox="0 0 512 512" xmlns="http://www.w3.org/2000/svg" xmlns:xlink="http://www.w3.org/1999/xlink" version="1.1">
<path d="M427.764 489.019 C423.669 489.019 419.575 487.458 416.451 484.334 L284.75 352.633 C258.559 367.505 228.272 376 196 376 96.589 376 16 295.411 16 196 16 96.589 96.589 16 196 16 295.411 16 376 96.589 376 196 376 228.271 367.505 258.558 352.633 284.75 L484.334 416.451 C490.582 422.699 490.582 432.83 484.334 439.078 L439.078 484.334 C435.954 487.458 431.858 489.019 427.764 489.019 Z M196 292 C249.019 292 292 249.019 292 196 292 142.98 249.019 100 196 100 142.981 100 100 142.98 100 196 100 249.019 142.981 292 196 292 Z" fill="#fff"/>
</svg>
