<svg viewBox="0 0 512 512" xmlns="http://www.w3.org/2000/svg" xmlns:xlink="http://www.w3.org/1999/xlink">
<path fill="#fff" d="M 32 434 C 23.163547 434 16 426.83646 16 418 L 16 162 C 16 153.16354 23.163547 146 32 146 L 139.244141 146 L 186.689453 98.554688 C 207.25535 78.006033 207.259082 78.006958 234.820313 78 C 240.334964 77.998608 248.29127 78.000296 255.5 78 C 262.708731 78.000297 270.665034 77.998605 276.179688 78 C 303.740918 78.006943 303.74465 78.006048 324.310547 98.554688 L 371.755859 146 L 480 146 C 488.83646 146 496 153.16354 496 162 L 496 418 C 496 426.83646 488.83646 434 480 434 L 32 434 Z M 255.5 407 C 319.841058 407 372 354.841043 372 290.5 C 372 226.158942 319.841058 174 255.5 174 C 191.158957 174 139 226.158942 139 290.5 C 139 354.841043 191.158957 407 255.5 407 Z M 255.5 362 C 216.011682 362 184 329.988318 184 290.5 C 184 251.011697 216.011682 219 255.5 219 C 294.988303 219 327 251.011697 327 290.5 C 327 329.988318 294.988303 362 255.5 362 Z"/>
</svg>
