<?xml version="1.0"?>
<svg viewBox="0 0 512 512" xmlns="http://www.w3.org/2000/svg" xmlns:xlink="http://www.w3.org/1999/xlink" version="1.1">
<path d="M292.244 473 C281.502 473.078 265.854 457.376 256.131 447.653 224.247 415.769 200.342 391.864 160.479 352 L32 352 C23.164 352 16 344.837 16 336 L16 176 C16 167.164 23.164 160 32 160 L160 160 C199.984 120.016 224.087 95.913 256.131 63.869 272.087 47.913 304 15.856 304 63.856 304 101.237 304 131.377 304 176 L304 336 C304 371.241 304 432.411 304 447.666 304 466.416 299.13 472.95 292.244 473 Z" fill="#fff"/>
<path d="M318.037 329.262 C340.361 313.663 352 285.367 352 256 352 226.991 340.592 199.145 318.794 183.386 303.677 172.456 327.297 130.916 343.378 141.533 379.533 165.404 400 209.329 400 256 400 303.207 378.634 347.015 342.186 371.368 327.161 381.408 303.315 339.55 318.037 329.262 Z" fill="#fff"/>
<path d="M367.802 412.106 C417.82 379.39 448 320.327 448 256 448 190.958 417.13 131.271 366.177 98.741 351.014 89.061 374.934 47.345 389.695 56.658 455.026 97.878 496 172.946 496 256 496 339.054 455.467 414.829 389.695 455.342 374.924 464.441 351.094 423.034 367.802 412.106 Z" fill="#fff"/>
</svg>
