<?xml version="1.0"?>
<svg viewBox="0 0 512 512" xmlns="http://www.w3.org/2000/svg" xmlns:xlink="http://www.w3.org/1999/xlink" version="1.1">
<path d="M140.034 140.034 C157.999 122.07 157.999 92.945 140.034 74.981 122.07 57.017 92.945 57.017 74.981 74.981 57.017 92.945 57.017 122.07 74.981 140.034 92.945 157.999 122.07 157.999 140.034 140.034 Z" fill="#f90" fill-opacity="0.125"/>
<path d="M92 256 C92 230.595 71.405 210 46 210 20.595 210 0 230.595 0 256 0 281.405 20.595 302 46 302 71.405 302 92 281.405 92 256 Z" fill="#f90" fill-opacity="0.25"/>
<path d="M74.981 437.019 C92.945 454.983 122.07 454.983 140.034 437.019 157.999 419.055 157.999 389.93 140.034 371.966 122.07 354.001 92.945 354.001 74.981 371.966 57.017 389.93 57.017 419.055 74.981 437.019 Z" fill="#f90" fill-opacity="0.375"/>
<path d="M256 512 C281.405 512 302 491.405 302 466 302 440.595 281.405 420 256 420 230.595 420 210 440.595 210 466 210 491.405 230.595 512 256 512 Z" fill="#f90" fill-opacity="0.5" stroke="none"/>
<path d="M437.019 437.019 C454.983 419.055 454.983 389.93 437.019 371.966 419.055 354.001 389.93 354.001 371.966 371.966 354.001 389.93 354.001 419.055 371.966 437.019 389.93 454.983 419.055 454.983 437.019 437.019 Z" fill="#f90" fill-opacity="0.625"/>
<path d="M512 256 C512 230.595 491.405 210 466 210 440.595 210 420 230.595 420 256 420 281.405 440.595 302 466 302 491.405 302 512 281.405 512 256 Z" fill="#f90" fill-opacity="0.75"/>
<path d="M371.966 140.034 C389.93 157.999 419.055 157.999 437.019 140.034 454.983 122.07 454.983 92.945 437.019 74.981 419.055 57.017 389.93 57.017 371.966 74.981 354.001 92.945 354.001 122.07 371.966 140.034 Z" fill="#f90" fill-opacity="0.875"/>
<path d="M256 92 C281.405 92 302 71.405 302 46 302 20.595 281.405 0 256 0 230.595 0 210 20.595 210 46 210 71.405 230.595 92 256 92 Z" fill="#f90"/>
</svg>
